<svg width="32" height="32" viewBox="0 0 32 32" fill="none" xmlns="http://www.w3.org/2000/svg">
    <path
        d="M9.27344 25.1875L4.58594 7.76562H7.19336L11.8809 25.1875H9.27344ZM16.9473 23.1953C15.6582 23.1953 14.4993 22.9023 13.4707 22.3164C12.4421 21.7305 11.6283 20.8809 11.0293 19.7676C10.4303 18.6543 10.1309 17.3099 10.1309 15.7344C10.1309 14.1458 10.4303 12.7949 11.0293 11.6816C11.6283 10.5684 12.4421 9.71875 13.4707 9.13281C14.4993 8.54688 15.6582 8.25391 16.9473 8.25391C18.2363 8.25391 19.3919 8.54688 20.4141 9.13281C21.4427 9.71875 22.2565 10.5684 22.8555 11.6816C23.4544 12.7949 23.7539 14.1458 23.7539 15.7344C23.7539 17.3229 23.4544 18.6738 22.8555 19.7871C22.2565 20.8939 21.4427 21.7402 20.4141 22.3262C19.3919 22.9056 18.2363 23.1953 16.9473 23.1953ZM13.2461 15.7344C13.2461 17.2708 13.5814 18.446 14.252 19.2598C14.929 20.0736 15.8275 20.4805 16.9473 20.4805C18.0605 20.4805 18.9525 20.0736 19.623 19.2598C20.3001 18.446 20.6387 17.2708 20.6387 15.7344C20.6387 14.1914 20.3001 13.013 19.623 12.1992C18.9525 11.3789 18.0605 10.9688 16.9473 10.9688C15.8275 10.9688 14.929 11.3789 14.252 12.1992C13.5814 13.013 13.2461 14.1914 13.2461 15.7344ZM27.127 18.3906L26.9023 8.44922H30.1445L29.9297 18.3906H27.127ZM26.7656 21.5059C26.7656 21.0046 26.9284 20.6009 27.2539 20.2949C27.5859 19.9889 28.0091 19.8359 28.5234 19.8359C29.0443 19.8359 29.4674 19.9889 29.793 20.2949C30.125 20.6009 30.291 21.0046 30.291 21.5059C30.291 22.0072 30.125 22.4141 29.793 22.7266C29.4674 23.0326 29.0443 23.1855 28.5234 23.1855C28.0091 23.1855 27.5859 23.0326 27.2539 22.7266C26.9284 22.4141 26.7656 22.0072 26.7656 21.5059Z"
        fill="#4B42FF" />
    <path
        d="M9.27344 25.1875L8.30778 25.4473L8.50693 26.1875H9.27344V25.1875ZM4.58594 7.76562V6.76562H3.28132L3.62028 8.02544L4.58594 7.76562ZM7.19336 7.76562L8.15902 7.50581L7.95986 6.76562H7.19336V7.76562ZM11.8809 25.1875V26.1875H13.1855L12.8465 24.9277L11.8809 25.1875ZM10.2391 24.9277L5.5516 7.50581L3.62028 8.02544L8.30778 25.4473L10.2391 24.9277ZM4.58594 8.76562H7.19336V6.76562H4.58594V8.76562ZM6.2277 8.02544L10.9152 25.4473L12.8465 24.9277L8.15902 7.50581L6.2277 8.02544ZM11.8809 24.1875H9.27344V26.1875H11.8809V24.1875ZM13.4707 22.3164L12.9757 23.1853L13.4707 22.3164ZM13.4707 9.13281L12.9757 8.26389L13.4707 9.13281ZM20.4141 9.13281L19.9167 10.0004L19.9191 10.0017L20.4141 9.13281ZM22.8555 19.7871L23.7349 20.2631L23.7361 20.2609L22.8555 19.7871ZM20.4141 22.3262L20.9072 23.1961L20.909 23.1951L20.4141 22.3262ZM14.252 19.2598L13.4802 19.8957L13.4832 19.8993L14.252 19.2598ZM19.623 19.2598L18.8543 18.6202L18.8513 18.6238L19.623 19.2598ZM19.623 12.1992L18.8488 12.8321L18.8543 12.8388L19.623 12.1992ZM14.252 12.1992L13.4807 11.5627L13.4802 11.5633L14.252 12.1992ZM16.9473 22.1953C15.8159 22.1953 14.8303 21.94 13.9657 21.4475L12.9757 23.1853C14.1684 23.8647 15.5005 24.1953 16.9473 24.1953V22.1953ZM13.9657 21.4475C13.1113 20.9608 12.4263 20.2535 11.9099 19.2938L10.1487 20.2414C10.8303 21.5082 11.7728 22.5001 12.9757 23.1853L13.9657 21.4475ZM11.9099 19.2938C11.4063 18.3577 11.1309 17.1846 11.1309 15.7344H9.13086C9.13086 17.4352 9.45435 18.9509 10.1487 20.2414L11.9099 19.2938ZM11.1309 15.7344C11.1309 14.2696 11.4069 13.0904 11.9099 12.1554L10.1487 11.2078C9.45376 12.4995 9.13086 14.0221 9.13086 15.7344H11.1309ZM11.9099 12.1554C12.4263 11.1957 13.1113 10.4884 13.9657 10.0017L12.9757 8.26389C11.7728 8.9491 10.8303 9.94098 10.1487 11.2078L11.9099 12.1554ZM13.9657 10.0017C14.8303 9.50923 15.8159 9.25391 16.9473 9.25391V7.25391C15.5005 7.25391 14.1684 7.58452 12.9757 8.26389L13.9657 10.0017ZM16.9473 9.25391C18.0787 9.25391 19.06 9.50925 19.9167 10.0004L20.9114 8.26525C19.7239 7.5845 18.3939 7.25391 16.9473 7.25391V9.25391ZM19.9191 10.0017C20.7735 10.4884 21.4585 11.1957 21.9748 12.1554L23.7361 11.2078C23.0545 9.94098 22.1119 8.9491 20.909 8.26389L19.9191 10.0017ZM21.9748 12.1554C22.4778 13.0904 22.7539 14.2696 22.7539 15.7344H24.7539C24.7539 14.0221 24.431 12.4995 23.7361 11.2078L21.9748 12.1554ZM22.7539 15.7344C22.7539 17.1992 22.4778 18.3784 21.9748 19.3133L23.7361 20.2609C24.431 18.9693 24.7539 17.4467 24.7539 15.7344H22.7539ZM21.976 19.3112C21.4601 20.2644 20.775 20.9697 19.9191 21.4573L20.909 23.1951C22.1104 22.5108 23.0529 21.5234 23.7349 20.2631L21.976 19.3112ZM19.9209 21.4562C19.0635 21.9423 18.0807 22.1953 16.9473 22.1953V24.1953C18.392 24.1953 19.7204 23.8689 20.9072 23.1961L19.9209 21.4562ZM12.2461 15.7344C12.2461 17.3997 12.6076 18.8367 13.4802 19.8957L15.0237 18.6238C14.5551 18.0552 14.2461 17.1419 14.2461 15.7344H12.2461ZM13.4832 19.8993C14.3625 20.9562 15.5501 21.4805 16.9473 21.4805V19.4805C16.1049 19.4805 15.4955 19.1909 15.0207 18.6202L13.4832 19.8993ZM16.9473 21.4805C18.3401 21.4805 19.5224 20.9544 20.3948 19.8957L18.8513 18.6238C18.3825 19.1928 17.7809 19.4805 16.9473 19.4805V21.4805ZM20.3918 19.8993C21.273 18.8402 21.6387 17.4016 21.6387 15.7344H19.6387C19.6387 17.14 19.3273 18.0518 18.8543 18.6202L20.3918 19.8993ZM21.6387 15.7344C21.6387 14.0618 21.2735 12.6195 20.3918 11.5596L18.8543 12.8388C19.3267 13.4066 19.6387 14.321 19.6387 15.7344H21.6387ZM20.3973 11.5663C19.526 10.5004 18.3431 9.96875 16.9473 9.96875V11.9688C17.778 11.9688 18.379 12.2574 18.8488 12.8321L20.3973 11.5663ZM16.9473 9.96875C15.5471 9.96875 14.359 10.4986 13.4807 11.5627L15.0232 12.8358C15.4991 12.2592 16.1078 11.9688 16.9473 11.9688V9.96875ZM13.4802 11.5633C12.6071 12.6229 12.2461 14.0637 12.2461 15.7344H14.2461C14.2461 14.3191 14.5557 13.4032 15.0237 12.8351L13.4802 11.5633ZM27.127 18.3906L26.1272 18.4132L26.1493 19.3906H27.127V18.3906ZM26.9023 8.44922V7.44922H25.8795L25.9026 8.47181L26.9023 8.44922ZM30.1445 8.44922L31.1443 8.47082L31.1664 7.44922H30.1445V8.44922ZM29.9297 18.3906V19.3906H30.9083L30.9295 18.4122L29.9297 18.3906ZM27.2539 20.2949L26.5762 19.5595L26.569 19.5663L27.2539 20.2949ZM29.793 20.2949L29.108 21.0236L29.1153 21.0303L29.793 20.2949ZM29.793 22.7266L30.4779 23.4552L30.4783 23.4548L29.793 22.7266ZM27.2539 22.7266L26.5614 23.4479L26.5687 23.455L26.5762 23.4619L27.2539 22.7266ZM28.1267 18.368L27.9021 8.42663L25.9026 8.47181L26.1272 18.4132L28.1267 18.368ZM26.9023 9.44922H30.1445V7.44922H26.9023V9.44922ZM29.1448 8.42761L28.9299 18.369L30.9295 18.4122L31.1443 8.47082L29.1448 8.42761ZM29.9297 17.3906H27.127V19.3906H29.9297V17.3906ZM27.7656 21.5059C27.7656 21.2433 27.8399 21.1165 27.9388 21.0235L26.569 19.5663C26.0168 20.0853 25.7656 20.7658 25.7656 21.5059H27.7656ZM27.9316 21.0303C28.0531 20.9183 28.2227 20.8359 28.5234 20.8359V18.8359C27.7955 18.8359 27.1188 19.0596 26.5762 19.5596L27.9316 21.0303ZM28.5234 20.8359C28.8349 20.8359 28.9985 20.9205 29.1081 21.0235L30.4779 19.5663C29.9364 19.0573 29.2536 18.8359 28.5234 18.8359V20.8359ZM29.1153 21.0303C29.218 21.1249 29.291 21.2497 29.291 21.5059H31.291C31.291 20.7594 31.032 20.0769 30.4706 19.5596L29.1153 21.0303ZM29.291 21.5059C29.291 21.7619 29.2177 21.8947 29.1076 21.9984L30.4783 23.4548C31.0323 22.9334 31.291 22.2525 31.291 21.5059H29.291ZM29.1081 21.9979C28.9985 22.101 28.8349 22.1855 28.5234 22.1855V24.1855C29.2536 24.1855 29.9364 23.9641 30.4779 23.4552L29.1081 21.9979ZM28.5234 22.1855C28.2227 22.1855 28.0531 22.1032 27.9316 21.9912L26.5762 23.4619C27.1188 23.9619 27.7955 24.1855 28.5234 24.1855V22.1855ZM27.9464 22.0052C27.8401 21.9031 27.7656 21.7682 27.7656 21.5059H25.7656C25.7656 22.2461 26.0166 22.925 26.5614 23.4479L27.9464 22.0052Z"
        fill="#4B42FF" />
</svg>