<svg viewBox="0 0 32 32" fill="none" xmlns="http://www.w3.org/2000/svg">
    <path
        d="M6.66406 3.76172V27.6875H3.80273V3.76172H6.66406ZM15.4492 23.1953C14.1602 23.1953 13.0013 22.9023 11.9727 22.3164C10.944 21.7305 10.1302 20.8809 9.53125 19.7676C8.93229 18.6543 8.63281 17.3099 8.63281 15.7344C8.63281 14.1458 8.93229 12.7949 9.53125 11.6816C10.1302 10.5684 10.944 9.71875 11.9727 9.13281C13.0013 8.54688 14.1602 8.25391 15.4492 8.25391C16.7383 8.25391 17.8939 8.54688 18.916 9.13281C19.9447 9.71875 20.7585 10.5684 21.3574 11.6816C21.9564 12.7949 22.2559 14.1458 22.2559 15.7344C22.2559 17.3229 21.9564 18.6738 21.3574 19.7871C20.7585 20.8939 19.9447 21.7402 18.916 22.3262C17.8939 22.9056 16.7383 23.1953 15.4492 23.1953ZM11.748 15.7344C11.748 17.2708 12.0833 18.446 12.7539 19.2598C13.431 20.0736 14.3294 20.4805 15.4492 20.4805C16.5625 20.4805 17.4544 20.0736 18.125 19.2598C18.8021 18.446 19.1406 17.2708 19.1406 15.7344C19.1406 14.1914 18.8021 13.013 18.125 12.1992C17.4544 11.3789 16.5625 10.9688 15.4492 10.9688C14.3294 10.9688 13.431 11.3789 12.7539 12.1992C12.0833 13.013 11.748 14.1914 11.748 15.7344ZM25.6289 18.3906L25.4043 8.44922H28.6465L28.4316 18.3906H25.6289ZM25.2676 21.5059C25.2676 21.0046 25.4303 20.6009 25.7559 20.2949C26.0879 19.9889 26.5111 19.8359 27.0254 19.8359C27.5462 19.8359 27.9694 19.9889 28.2949 20.2949C28.627 20.6009 28.793 21.0046 28.793 21.5059C28.793 22.0072 28.627 22.4141 28.2949 22.7266C27.9694 23.0326 27.5462 23.1855 27.0254 23.1855C26.5111 23.1855 26.0879 23.0326 25.7559 22.7266C25.4303 22.4141 25.2676 22.0072 25.2676 21.5059Z"
        fill="#4B42FF" />
</svg>