<svg width="32" height="32" viewBox="0 0 32 32" fill="none" xmlns="http://www.w3.org/2000/svg">
    <path
        d="M11.459 3.76172V27.6875H8.59766V3.76172H11.459ZM18.5957 23.1953C17.3066 23.1953 16.1478 22.9023 15.1191 22.3164C14.0905 21.7305 13.2767 20.8809 12.6777 19.7676C12.0788 18.6543 11.7793 17.3099 11.7793 15.7344C11.7793 14.1458 12.0788 12.7949 12.6777 11.6816C13.2767 10.5684 14.0905 9.71875 15.1191 9.13281C16.1478 8.54688 17.3066 8.25391 18.5957 8.25391C19.8848 8.25391 21.0404 8.54688 22.0625 9.13281C23.0911 9.71875 23.9049 10.5684 24.5039 11.6816C25.1029 12.7949 25.4023 14.1458 25.4023 15.7344C25.4023 17.3229 25.1029 18.6738 24.5039 19.7871C23.9049 20.8939 23.0911 21.7402 22.0625 22.3262C21.0404 22.9056 19.8848 23.1953 18.5957 23.1953ZM14.8945 15.7344C14.8945 17.2708 15.2298 18.446 15.9004 19.2598C16.5775 20.0736 17.4759 20.4805 18.5957 20.4805C19.709 20.4805 20.6009 20.0736 21.2715 19.2598C21.9486 18.446 22.2871 17.2708 22.2871 15.7344C22.2871 14.1914 21.9486 13.013 21.2715 12.1992C20.6009 11.3789 19.709 10.9688 18.5957 10.9688C17.4759 10.9688 16.5775 11.3789 15.9004 12.1992C15.2298 13.013 14.8945 14.1914 14.8945 15.7344ZM27.127 18.3906L26.9023 8.44922H30.1445L29.9297 18.3906H27.127ZM26.7656 21.5059C26.7656 21.0046 26.9284 20.6009 27.2539 20.2949C27.5859 19.9889 28.0091 19.8359 28.5234 19.8359C29.0443 19.8359 29.4674 19.9889 29.793 20.2949C30.125 20.6009 30.291 21.0046 30.291 21.5059C30.291 22.0072 30.125 22.4141 29.793 22.7266C29.4674 23.0326 29.0443 23.1855 28.5234 23.1855C28.0091 23.1855 27.5859 23.0326 27.2539 22.7266C26.9284 22.4141 26.7656 22.0072 26.7656 21.5059Z"
        fill="#4B42FF" />
</svg>