<svg width="32" height="32" viewBox="0 0 32 32" fill="none" xmlns="http://www.w3.org/2000/svg">
    <g clip-path="url(#clip0_1_38)">
        <path
            d="M9.29297 25.1875L4.60547 7.76562H7.21289L11.9004 25.1875H9.29297ZM16.9668 23.1953C15.6777 23.1953 14.5189 22.9023 13.4902 22.3164C12.4616 21.7305 11.6478 20.8809 11.0488 19.7676C10.4499 18.6543 10.1504 17.3099 10.1504 15.7344C10.1504 14.1458 10.4499 12.7949 11.0488 11.6816C11.6478 10.5684 12.4616 9.71875 13.4902 9.13281C14.5189 8.54688 15.6777 8.25391 16.9668 8.25391C18.2559 8.25391 19.4115 8.54688 20.4336 9.13281C21.4622 9.71875 22.276 10.5684 22.875 11.6816C23.474 12.7949 23.7734 14.1458 23.7734 15.7344C23.7734 17.3229 23.474 18.6738 22.875 19.7871C22.276 20.8939 21.4622 21.7402 20.4336 22.3262C19.4115 22.9056 18.2559 23.1953 16.9668 23.1953ZM13.2656 15.7344C13.2656 17.2708 13.6009 18.446 14.2715 19.2598C14.9486 20.0736 15.847 20.4805 16.9668 20.4805C18.0801 20.4805 18.972 20.0736 19.6426 19.2598C20.3197 18.446 20.6582 17.2708 20.6582 15.7344C20.6582 14.1914 20.3197 13.013 19.6426 12.1992C18.972 11.3789 18.0801 10.9688 16.9668 10.9688C15.847 10.9688 14.9486 11.3789 14.2715 12.1992C13.6009 13.013 13.2656 14.1914 13.2656 15.7344ZM26.2383 26.877L27.0977 20.7832H30.0957L28.2793 26.877H26.2383ZM28.6309 16.0078C28.1491 16.0078 27.7422 15.8451 27.4102 15.5195C27.0781 15.1875 26.9121 14.7839 26.9121 14.3086C26.9121 13.8268 27.0781 13.4232 27.4102 13.0977C27.7422 12.7721 28.1491 12.6094 28.6309 12.6094C29.1126 12.6094 29.5195 12.7721 29.8516 13.0977C30.1836 13.4232 30.3496 13.8268 30.3496 14.3086C30.3496 14.7839 30.1836 15.1875 29.8516 15.5195C29.5195 15.8451 29.1126 16.0078 28.6309 16.0078Z"
            fill="#D53C58" />
        <path
            d="M9.29297 25.1875L8.32731 25.4473L8.52646 26.1875H9.29297V25.1875ZM4.60547 7.76562V6.76562H3.30085L3.63981 8.02544L4.60547 7.76562ZM7.21289 7.76562L8.17855 7.50581L7.9794 6.76562H7.21289V7.76562ZM11.9004 25.1875V26.1875H13.205L12.866 24.9277L11.9004 25.1875ZM10.2586 24.9277L5.57113 7.50581L3.63981 8.02544L8.32731 25.4473L10.2586 24.9277ZM4.60547 8.76562H7.21289V6.76562H4.60547V8.76562ZM6.24723 8.02544L10.9347 25.4473L12.866 24.9277L8.17855 7.50581L6.24723 8.02544ZM11.9004 24.1875H9.29297V26.1875H11.9004V24.1875ZM13.4902 22.3164L12.9953 23.1853L13.4902 22.3164ZM13.4902 9.13281L12.9953 8.26389L13.4902 9.13281ZM20.4336 9.13281L19.9363 10.0004L19.9386 10.0017L20.4336 9.13281ZM22.875 19.7871L23.7545 20.2631L23.7556 20.2609L22.875 19.7871ZM20.4336 22.3262L20.9267 23.1961L20.9285 23.1951L20.4336 22.3262ZM14.2715 19.2598L13.4997 19.8957L13.5028 19.8993L14.2715 19.2598ZM19.6426 19.2598L18.8738 18.6202L18.8708 18.6238L19.6426 19.2598ZM19.6426 12.1992L18.8683 12.8321L18.8739 12.8388L19.6426 12.1992ZM14.2715 12.1992L13.5003 11.5627L13.4997 11.5633L14.2715 12.1992ZM16.9668 22.1953C15.8354 22.1953 14.8498 21.94 13.9852 21.4475L12.9953 23.1853C14.188 23.8647 15.52 24.1953 16.9668 24.1953V22.1953ZM13.9852 21.4475C13.1308 20.9608 12.4458 20.2535 11.9295 19.2938L10.1682 20.2414C10.8498 21.5082 11.7924 22.5001 12.9953 23.1853L13.9852 21.4475ZM11.9295 19.2938C11.4259 18.3577 11.1504 17.1846 11.1504 15.7344H9.15039C9.15039 17.4352 9.47388 18.9509 10.1682 20.2414L11.9295 19.2938ZM11.1504 15.7344C11.1504 14.2696 11.4265 13.0904 11.9295 12.1554L10.1682 11.2078C9.47329 12.4995 9.15039 14.0221 9.15039 15.7344H11.1504ZM11.9295 12.1554C12.4458 11.1957 13.1308 10.4884 13.9852 10.0017L12.9953 8.26389C11.7924 8.9491 10.8498 9.94098 10.1682 11.2078L11.9295 12.1554ZM13.9852 10.0017C14.8498 9.50923 15.8354 9.25391 16.9668 9.25391V7.25391C15.52 7.25391 14.188 7.58452 12.9953 8.26389L13.9852 10.0017ZM16.9668 9.25391C18.0983 9.25391 19.0795 9.50925 19.9363 10.0004L20.9309 8.26525C19.7434 7.5845 18.4135 7.25391 16.9668 7.25391V9.25391ZM19.9386 10.0017C20.793 10.4884 21.478 11.1957 21.9944 12.1554L23.7556 11.2078C23.074 9.94098 22.1315 8.9491 20.9285 8.26389L19.9386 10.0017ZM21.9944 12.1554C22.4974 13.0904 22.7734 14.2696 22.7734 15.7344H24.7734C24.7734 14.0221 24.4505 12.4995 23.7556 11.2078L21.9944 12.1554ZM22.7734 15.7344C22.7734 17.1992 22.4974 18.3784 21.9944 19.3133L23.7556 20.2609C24.4505 18.9693 24.7734 17.4467 24.7734 15.7344H22.7734ZM21.9955 19.3112C21.4797 20.2644 20.7945 20.9697 19.9386 21.4573L20.9285 23.1951C22.1299 22.5108 23.0724 21.5234 23.7545 20.2631L21.9955 19.3112ZM19.9404 21.4562C19.083 21.9423 18.1002 22.1953 16.9668 22.1953V24.1953C18.4115 24.1953 19.7399 23.8689 20.9267 23.1961L19.9404 21.4562ZM12.2656 15.7344C12.2656 17.3997 12.6272 18.8367 13.4997 19.8957L15.0432 18.6238C14.5747 18.0552 14.2656 17.1419 14.2656 15.7344H12.2656ZM13.5028 19.8993C14.3821 20.9562 15.5696 21.4805 16.9668 21.4805V19.4805C16.1244 19.4805 15.5151 19.1909 15.0402 18.6202L13.5028 19.8993ZM16.9668 21.4805C18.3597 21.4805 19.542 20.9544 20.4143 19.8957L18.8708 18.6238C18.402 19.1928 17.8005 19.4805 16.9668 19.4805V21.4805ZM20.4113 19.8993C21.2925 18.8402 21.6582 17.4016 21.6582 15.7344H19.6582C19.6582 17.14 19.3468 18.0518 18.8739 18.6202L20.4113 19.8993ZM21.6582 15.7344C21.6582 14.0618 21.2931 12.6195 20.4113 11.5596L18.8739 12.8388C19.3462 13.4066 19.6582 14.321 19.6582 15.7344H21.6582ZM20.4168 11.5663C19.5455 10.5004 18.3626 9.96875 16.9668 9.96875V11.9688C17.7975 11.9688 18.3985 12.2574 18.8683 12.8321L20.4168 11.5663ZM16.9668 9.96875C15.5667 9.96875 14.3785 10.4986 13.5003 11.5627L15.0427 12.8358C15.5186 12.2592 16.1273 11.9688 16.9668 11.9688V9.96875ZM13.4997 11.5633C12.6266 12.6229 12.2656 14.0637 12.2656 15.7344H14.2656C14.2656 14.3191 14.5752 13.4032 15.0432 12.8351L13.4997 11.5633ZM26.2383 26.877L25.2481 26.7373L25.0874 27.877H26.2383V26.877ZM27.0977 20.7832V19.7832H26.2288L26.1075 20.6436L27.0977 20.7832ZM30.0957 20.7832L31.054 21.0689L31.4373 19.7832H30.0957V20.7832ZM28.2793 26.877V27.877H29.0247L29.2376 27.1626L28.2793 26.877ZM27.4102 15.5195L26.703 16.2267L26.7101 16.2336L27.4102 15.5195ZM27.4102 13.0977L26.7101 12.3836L27.4102 13.0977ZM29.8516 13.0977L30.5516 12.3836L29.8516 13.0977ZM29.8516 15.5195L30.5517 16.2336L30.5587 16.2266L29.8516 15.5195ZM27.2285 27.0166L28.0879 20.9228L26.1075 20.6436L25.2481 26.7373L27.2285 27.0166ZM27.0977 21.7832H30.0957V19.7832H27.0977V21.7832ZM29.1374 20.4975L27.321 26.5913L29.2376 27.1626L31.054 21.0689L29.1374 20.4975ZM28.2793 25.877H26.2383V27.877H28.2793V25.877ZM28.6309 15.0078C28.4004 15.0078 28.2479 14.9405 28.1102 14.8055L26.7101 16.2336C27.2364 16.7496 27.8978 17.0078 28.6309 17.0078V15.0078ZM28.1173 14.8124C27.9753 14.6705 27.9121 14.5223 27.9121 14.3086H25.9121C25.9121 15.0455 26.1809 15.7045 26.703 16.2266L28.1173 14.8124ZM27.9121 14.3086C27.9121 14.0846 27.9777 13.9417 28.1102 13.8117L26.7101 12.3836C26.1786 12.9047 25.9121 13.569 25.9121 14.3086H27.9121ZM28.1102 13.8117C28.2479 13.6767 28.4004 13.6094 28.6309 13.6094V11.6094C27.8978 11.6094 27.2364 11.8676 26.7101 12.3836L28.1102 13.8117ZM28.6309 13.6094C28.8614 13.6094 29.0138 13.6767 29.1515 13.8117L30.5516 12.3836C30.0253 11.8676 29.3639 11.6094 28.6309 11.6094V13.6094ZM29.1515 13.8117C29.2841 13.9417 29.3496 14.0846 29.3496 14.3086H31.3496C31.3496 13.569 31.0831 12.9047 30.5516 12.3836L29.1515 13.8117ZM29.3496 14.3086C29.3496 14.5223 29.2864 14.6705 29.1445 14.8124L30.5587 16.2266C31.0808 15.7045 31.3496 15.0455 31.3496 14.3086H29.3496ZM29.1515 14.8055C29.0138 14.9405 28.8614 15.0078 28.6309 15.0078V17.0078C29.3639 17.0078 30.0253 16.7496 30.5516 16.2336L29.1515 14.8055Z"
            fill="#D43C58" />
    </g>
    <defs>
        <clipPath id="clip0_1_38">
            <rect width="32" height="32" fill="white" />
        </clipPath>
    </defs>
</svg>