<svg viewBox="0 0 32 32" fill="none" xmlns="http://www.w3.org/2000/svg">
    <path
        d="M6.22852 3.76172V27.6875H3.36719V3.76172H6.22852ZM15.0137 23.1953C13.7246 23.1953 12.5658 22.9023 11.5371 22.3164C10.5085 21.7305 9.69466 20.8809 9.0957 19.7676C8.49674 18.6543 8.19727 17.3099 8.19727 15.7344C8.19727 14.1458 8.49674 12.7949 9.0957 11.6816C9.69466 10.5684 10.5085 9.71875 11.5371 9.13281C12.5658 8.54688 13.7246 8.25391 15.0137 8.25391C16.3027 8.25391 17.4583 8.54688 18.4805 9.13281C19.5091 9.71875 20.3229 10.5684 20.9219 11.6816C21.5208 12.7949 21.8203 14.1458 21.8203 15.7344C21.8203 17.3229 21.5208 18.6738 20.9219 19.7871C20.3229 20.8939 19.5091 21.7402 18.4805 22.3262C17.4583 22.9056 16.3027 23.1953 15.0137 23.1953ZM11.3125 15.7344C11.3125 17.2708 11.6478 18.446 12.3184 19.2598C12.9954 20.0736 13.8939 20.4805 15.0137 20.4805C16.127 20.4805 17.0189 20.0736 17.6895 19.2598C18.3665 18.446 18.7051 17.2708 18.7051 15.7344C18.7051 14.1914 18.3665 13.013 17.6895 12.1992C17.0189 11.3789 16.127 10.9688 15.0137 10.9688C13.8939 10.9688 12.9954 11.3789 12.3184 12.1992C11.6478 13.013 11.3125 14.1914 11.3125 15.7344ZM29.5605 18C28.7533 18 28.1868 18.166 27.8613 18.498C27.5423 18.8236 27.3828 19.3509 27.3828 20.0801V21.7402C27.3828 22.6191 27.2624 23.3223 27.0215 23.8496C26.7806 24.377 26.4388 24.7741 25.9961 25.041C25.5599 25.3145 25.0391 25.4967 24.4336 25.5879C23.8346 25.679 23.1771 25.7246 22.4609 25.7246V23.459C23.3073 23.459 23.8704 23.2962 24.1504 22.9707C24.4368 22.6387 24.5801 22.1276 24.5801 21.4375V19.3672C24.5801 19.0156 24.6387 18.6706 24.7559 18.332C24.8796 17.9935 25.1074 17.6875 25.4395 17.4141C25.7715 17.1406 26.2565 16.9225 26.8945 16.7598V16.5254C26.2565 16.3626 25.7715 16.1478 25.4395 15.8809C25.1074 15.6074 24.8796 15.3014 24.7559 14.9629C24.6387 14.6243 24.5801 14.2793 24.5801 13.9277V11.8477C24.5801 11.1576 24.4368 10.6497 24.1504 10.3242C23.8704 9.99219 23.3073 9.82943 22.4609 9.83594V7.56055C23.1771 7.56055 23.8346 7.60612 24.4336 7.69727C25.0391 7.78841 25.5599 7.9707 25.9961 8.24414C26.4388 8.51107 26.7806 8.91146 27.0215 9.44531C27.2624 9.97266 27.3828 10.6725 27.3828 11.5449V13.2051C27.3828 13.9342 27.5423 14.4648 27.8613 14.7969C28.1868 15.1224 28.7533 15.2852 29.5605 15.2852V18Z"
        fill="#E3B127" />
</svg>