<svg width="32" height="32" viewBox="0 0 32 32" fill="none" xmlns="http://www.w3.org/2000/svg">
    <path
        d="M10.9121 3.76172V27.6875H8.05078V3.76172H10.9121ZM18.0488 23.1953C16.7598 23.1953 15.6009 22.9023 14.5723 22.3164C13.5436 21.7305 12.7298 20.8809 12.1309 19.7676C11.5319 18.6543 11.2324 17.3099 11.2324 15.7344C11.2324 14.1458 11.5319 12.7949 12.1309 11.6816C12.7298 10.5684 13.5436 9.71875 14.5723 9.13281C15.6009 8.54688 16.7598 8.25391 18.0488 8.25391C19.3379 8.25391 20.4935 8.54688 21.5156 9.13281C22.5443 9.71875 23.3581 10.5684 23.957 11.6816C24.556 12.7949 24.8555 14.1458 24.8555 15.7344C24.8555 17.3229 24.556 18.6738 23.957 19.7871C23.3581 20.8939 22.5443 21.7402 21.5156 22.3262C20.4935 22.9056 19.3379 23.1953 18.0488 23.1953ZM14.3477 15.7344C14.3477 17.2708 14.6829 18.446 15.3535 19.2598C16.0306 20.0736 16.929 20.4805 18.0488 20.4805C19.1621 20.4805 20.054 20.0736 20.7246 19.2598C21.4017 18.446 21.7402 17.2708 21.7402 15.7344C21.7402 14.1914 21.4017 13.013 20.7246 12.1992C20.054 11.3789 19.1621 10.9688 18.0488 10.9688C16.929 10.9688 16.0306 11.3789 15.3535 12.1992C14.6829 13.013 14.3477 14.1914 14.3477 15.7344ZM29.6855 3.76172V27.6875H26.8242V3.76172H29.6855Z"
        fill="#CD52C5" />
</svg>