<svg viewBox="0 0 32 32" fill="none" xmlns="http://www.w3.org/2000/svg">
    <path
        d="M5.88086 3.76172V27.6875H3.01953V3.76172H5.88086ZM14.666 23.1953C13.377 23.1953 12.2181 22.9023 11.1895 22.3164C10.1608 21.7305 9.34701 20.8809 8.74805 19.7676C8.14909 18.6543 7.84961 17.3099 7.84961 15.7344C7.84961 14.1458 8.14909 12.7949 8.74805 11.6816C9.34701 10.5684 10.1608 9.71875 11.1895 9.13281C12.2181 8.54688 13.377 8.25391 14.666 8.25391C15.9551 8.25391 17.1107 8.54688 18.1328 9.13281C19.1615 9.71875 19.9753 10.5684 20.5742 11.6816C21.1732 12.7949 21.4727 14.1458 21.4727 15.7344C21.4727 17.3229 21.1732 18.6738 20.5742 19.7871C19.9753 20.8939 19.1615 21.7402 18.1328 22.3262C17.1107 22.9056 15.9551 23.1953 14.666 23.1953ZM10.9648 15.7344C10.9648 17.2708 11.3001 18.446 11.9707 19.2598C12.6478 20.0736 13.5462 20.4805 14.666 20.4805C15.7793 20.4805 16.6712 20.0736 17.3418 19.2598C18.0189 18.446 18.3574 17.2708 18.3574 15.7344C18.3574 14.1914 18.0189 13.013 17.3418 12.1992C16.6712 11.3789 15.7793 10.9688 14.666 10.9688C13.5462 10.9688 12.6478 11.3789 11.9707 12.1992C11.3001 13.013 10.9648 14.1914 10.9648 15.7344ZM21.1094 14.543L22.9258 8.44922H24.9668L24.1074 14.543H21.1094ZM25.8066 14.543L27.623 8.44922H29.6641L28.8047 14.543H25.8066Z"
        fill="#62C99C" />
</svg>