<svg width="32" height="32" viewBox="0 0 32 32" fill="none" xmlns="http://www.w3.org/2000/svg">
    <g clip-path="url(#clip0_1_38)">
        <path
            d="M11.4785 3.76172V27.6875H8.61719V3.76172H11.4785ZM18.6152 23.1953C17.3262 23.1953 16.1673 22.9023 15.1387 22.3164C14.11 21.7305 13.2962 20.8809 12.6973 19.7676C12.0983 18.6543 11.7988 17.3099 11.7988 15.7344C11.7988 14.1458 12.0983 12.7949 12.6973 11.6816C13.2962 10.5684 14.11 9.71875 15.1387 9.13281C16.1673 8.54688 17.3262 8.25391 18.6152 8.25391C19.9043 8.25391 21.0599 8.54688 22.082 9.13281C23.1107 9.71875 23.9245 10.5684 24.5234 11.6816C25.1224 12.7949 25.4219 14.1458 25.4219 15.7344C25.4219 17.3229 25.1224 18.6738 24.5234 19.7871C23.9245 20.8939 23.1107 21.7402 22.082 22.3262C21.0599 22.9056 19.9043 23.1953 18.6152 23.1953ZM14.9141 15.7344C14.9141 17.2708 15.2493 18.446 15.9199 19.2598C16.597 20.0736 17.4954 20.4805 18.6152 20.4805C19.7285 20.4805 20.6204 20.0736 21.291 19.2598C21.9681 18.446 22.3066 17.2708 22.3066 15.7344C22.3066 14.1914 21.9681 13.013 21.291 12.1992C20.6204 11.3789 19.7285 10.9688 18.6152 10.9688C17.4954 10.9688 16.597 11.3789 15.9199 12.1992C15.2493 13.013 14.9141 14.1914 14.9141 15.7344ZM26.2383 26.877L27.0977 20.7832H30.0957L28.2793 26.877H26.2383ZM28.6309 16.0078C28.1491 16.0078 27.7422 15.8451 27.4102 15.5195C27.0781 15.1875 26.9121 14.7839 26.9121 14.3086C26.9121 13.8268 27.0781 13.4232 27.4102 13.0977C27.7422 12.7721 28.1491 12.6094 28.6309 12.6094C29.1126 12.6094 29.5195 12.7721 29.8516 13.0977C30.1836 13.4232 30.3496 13.8268 30.3496 14.3086C30.3496 14.7839 30.1836 15.1875 29.8516 15.5195C29.5195 15.8451 29.1126 16.0078 28.6309 16.0078Z"
            fill="#D53C58" />
    </g>
    <defs>
        <clipPath id="clip0_1_38">
            <rect width="32" height="32" fill="white" />
        </clipPath>
    </defs>
</svg>