<svg width="32" height="32" viewBox="0 0 32 32" fill="none" xmlns="http://www.w3.org/2000/svg">
    <path
        d="M10.5879 3.76172V27.6875H7.72656V3.76172H10.5879ZM17.7246 23.1953C16.4355 23.1953 15.2767 22.9023 14.248 22.3164C13.2194 21.7305 12.4056 20.8809 11.8066 19.7676C11.2077 18.6543 10.9082 17.3099 10.9082 15.7344C10.9082 14.1458 11.2077 12.7949 11.8066 11.6816C12.4056 10.5684 13.2194 9.71875 14.248 9.13281C15.2767 8.54688 16.4355 8.25391 17.7246 8.25391C19.0137 8.25391 20.1693 8.54688 21.1914 9.13281C22.2201 9.71875 23.0339 10.5684 23.6328 11.6816C24.2318 12.7949 24.5312 14.1458 24.5312 15.7344C24.5312 17.3229 24.2318 18.6738 23.6328 19.7871C23.0339 20.8939 22.2201 21.7402 21.1914 22.3262C20.1693 22.9056 19.0137 23.1953 17.7246 23.1953ZM14.0234 15.7344C14.0234 17.2708 14.3587 18.446 15.0293 19.2598C15.7064 20.0736 16.6048 20.4805 17.7246 20.4805C18.8379 20.4805 19.7298 20.0736 20.4004 19.2598C21.0775 18.446 21.416 17.2708 21.416 15.7344C21.416 14.1914 21.0775 13.013 20.4004 12.1992C19.7298 11.3789 18.8379 10.9688 17.7246 10.9688C16.6048 10.9688 15.7064 11.3789 15.0293 12.1992C14.3587 13.013 14.0234 14.1914 14.0234 15.7344ZM30.623 18C29.8158 18 29.2493 18.166 28.9238 18.498C28.6048 18.8236 28.4453 19.3509 28.4453 20.0801V21.7402C28.4453 22.6191 28.3249 23.3223 28.084 23.8496C27.8431 24.377 27.5013 24.7741 27.0586 25.041C26.6224 25.3145 26.1016 25.4967 25.4961 25.5879C24.8971 25.679 24.2396 25.7246 23.5234 25.7246V23.459C24.3698 23.459 24.9329 23.2962 25.2129 22.9707C25.4993 22.6387 25.6426 22.1276 25.6426 21.4375V19.3672C25.6426 19.0156 25.7012 18.6706 25.8184 18.332C25.9421 17.9935 26.1699 17.6875 26.502 17.4141C26.834 17.1406 27.319 16.9225 27.957 16.7598V16.5254C27.319 16.3626 26.834 16.1478 26.502 15.8809C26.1699 15.6074 25.9421 15.3014 25.8184 14.9629C25.7012 14.6243 25.6426 14.2793 25.6426 13.9277V11.8477C25.6426 11.1576 25.4993 10.6497 25.2129 10.3242C24.9329 9.99219 24.3698 9.82943 23.5234 9.83594V7.56055C24.2396 7.56055 24.8971 7.60612 25.4961 7.69727C26.1016 7.78841 26.6224 7.9707 27.0586 8.24414C27.5013 8.51107 27.8431 8.91146 28.084 9.44531C28.3249 9.97266 28.4453 10.6725 28.4453 11.5449V13.2051C28.4453 13.9342 28.6048 14.4648 28.9238 14.7969C29.2493 15.1224 29.8158 15.2852 30.623 15.2852V18Z"
        fill="#E3B127" />
</svg>