<svg width="32" height="32" viewBox="0 0 32 32" fill="none" xmlns="http://www.w3.org/2000/svg">
    <path
        d="M11.2832 3.76172V27.6875H8.42188V3.76172H11.2832ZM18.4199 23.1953C17.1309 23.1953 15.972 22.9023 14.9434 22.3164C13.9147 21.7305 13.1009 20.8809 12.502 19.7676C11.903 18.6543 11.6035 17.3099 11.6035 15.7344C11.6035 14.1458 11.903 12.7949 12.502 11.6816C13.1009 10.5684 13.9147 9.71875 14.9434 9.13281C15.972 8.54688 17.1309 8.25391 18.4199 8.25391C19.709 8.25391 20.8646 8.54688 21.8867 9.13281C22.9154 9.71875 23.7292 10.5684 24.3281 11.6816C24.9271 12.7949 25.2266 14.1458 25.2266 15.7344C25.2266 17.3229 24.9271 18.6738 24.3281 19.7871C23.7292 20.8939 22.9154 21.7402 21.8867 22.3262C20.8646 22.9056 19.709 23.1953 18.4199 23.1953ZM14.7188 15.7344C14.7188 17.2708 15.054 18.446 15.7246 19.2598C16.4017 20.0736 17.3001 20.4805 18.4199 20.4805C19.5332 20.4805 20.4251 20.0736 21.0957 19.2598C21.7728 18.446 22.1113 17.2708 22.1113 15.7344C22.1113 14.1914 21.7728 13.013 21.0957 12.1992C20.4251 11.3789 19.5332 10.9688 18.4199 10.9688C17.3001 10.9688 16.4017 11.3789 15.7246 12.1992C15.054 13.013 14.7188 14.1914 14.7188 15.7344ZM26.5117 14.543L27.3711 8.44922H30.3691L28.5527 14.543H26.5117Z"
        fill="#62C99C" />
</svg>