<svg width="32" height="32" viewBox="0 0 32 32" fill="none" xmlns="http://www.w3.org/2000/svg">
    <path
        d="M9.09766 25.1875L4.41016 7.76562H7.01758L11.7051 25.1875H9.09766ZM16.7715 23.1953C15.4824 23.1953 14.3236 22.9023 13.2949 22.3164C12.2663 21.7305 11.4525 20.8809 10.8535 19.7676C10.2546 18.6543 9.95508 17.3099 9.95508 15.7344C9.95508 14.1458 10.2546 12.7949 10.8535 11.6816C11.4525 10.5684 12.2663 9.71875 13.2949 9.13281C14.3236 8.54688 15.4824 8.25391 16.7715 8.25391C18.0605 8.25391 19.2161 8.54688 20.2383 9.13281C21.2669 9.71875 22.0807 10.5684 22.6797 11.6816C23.2786 12.7949 23.5781 14.1458 23.5781 15.7344C23.5781 17.3229 23.2786 18.6738 22.6797 19.7871C22.0807 20.8939 21.2669 21.7402 20.2383 22.3262C19.2161 22.9056 18.0605 23.1953 16.7715 23.1953ZM13.0703 15.7344C13.0703 17.2708 13.4056 18.446 14.0762 19.2598C14.7533 20.0736 15.6517 20.4805 16.7715 20.4805C17.8848 20.4805 18.7767 20.0736 19.4473 19.2598C20.1243 18.446 20.4629 17.2708 20.4629 15.7344C20.4629 14.1914 20.1243 13.013 19.4473 12.1992C18.7767 11.3789 17.8848 10.9688 16.7715 10.9688C15.6517 10.9688 14.7533 11.3789 14.0762 12.1992C13.4056 13.013 13.0703 14.1914 13.0703 15.7344ZM26.5117 14.543L27.3711 8.44922H30.3691L28.5527 14.543H26.5117Z"
        fill="#62C99C" />
    <path
        d="M9.09766 25.1875L8.132 25.4473L8.33115 26.1875H9.09766V25.1875ZM4.41016 7.76562V6.76562H3.10553L3.4445 8.02544L4.41016 7.76562ZM7.01758 7.76562L7.98324 7.50581L7.78408 6.76562H7.01758V7.76562ZM11.7051 25.1875V26.1875H13.0097L12.6707 24.9277L11.7051 25.1875ZM10.0633 24.9277L5.37581 7.50581L3.4445 8.02544L8.132 25.4473L10.0633 24.9277ZM4.41016 8.76562H7.01758V6.76562H4.41016V8.76562ZM6.05192 8.02544L10.7394 25.4473L12.6707 24.9277L7.98324 7.50581L6.05192 8.02544ZM11.7051 24.1875H9.09766V26.1875H11.7051V24.1875ZM13.2949 22.3164L12.8 23.1853L13.2949 22.3164ZM13.2949 9.13281L12.8 8.26389L13.2949 9.13281ZM20.2383 9.13281L19.741 10.0004L19.7433 10.0017L20.2383 9.13281ZM22.6797 19.7871L23.5592 20.2631L23.5603 20.2609L22.6797 19.7871ZM20.2383 22.3262L20.7314 23.1961L20.7332 23.1951L20.2383 22.3262ZM14.0762 19.2598L13.3044 19.8957L13.3074 19.8993L14.0762 19.2598ZM19.4473 19.2598L18.6785 18.6202L18.6755 18.6238L19.4473 19.2598ZM19.4473 12.1992L18.673 12.8321L18.6785 12.8388L19.4473 12.1992ZM14.0762 12.1992L13.3049 11.5627L13.3044 11.5633L14.0762 12.1992ZM16.7715 22.1953C15.6401 22.1953 14.6545 21.94 13.7899 21.4475L12.8 23.1853C13.9926 23.8647 15.3247 24.1953 16.7715 24.1953V22.1953ZM13.7899 21.4475C12.9355 20.9608 12.2505 20.2535 11.7342 19.2938L9.97288 20.2414C10.6545 21.5082 11.597 22.5001 12.8 23.1853L13.7899 21.4475ZM11.7342 19.2938C11.2305 18.3577 10.9551 17.1846 10.9551 15.7344H8.95508C8.95508 17.4352 9.27857 18.9509 9.97288 20.2414L11.7342 19.2938ZM10.9551 15.7344C10.9551 14.2696 11.2311 13.0904 11.7342 12.1554L9.97288 11.2078C9.27798 12.4995 8.95508 14.0221 8.95508 15.7344H10.9551ZM11.7342 12.1554C12.2505 11.1957 12.9355 10.4884 13.7899 10.0017L12.8 8.26389C11.597 8.9491 10.6545 9.94098 9.97288 11.2078L11.7342 12.1554ZM13.7899 10.0017C14.6545 9.50923 15.6401 9.25391 16.7715 9.25391V7.25391C15.3247 7.25391 13.9926 7.58452 12.8 8.26389L13.7899 10.0017ZM16.7715 9.25391C17.9029 9.25391 18.8842 9.50925 19.741 10.0004L20.7356 8.26525C19.5481 7.5845 18.2182 7.25391 16.7715 7.25391V9.25391ZM19.7433 10.0017C20.5977 10.4884 21.2827 11.1957 21.7991 12.1554L23.5603 11.2078C22.8787 9.94098 21.9362 8.9491 20.7332 8.26389L19.7433 10.0017ZM21.7991 12.1554C22.3021 13.0904 22.5781 14.2696 22.5781 15.7344H24.5781C24.5781 14.0221 24.2552 12.4995 23.5603 11.2078L21.7991 12.1554ZM22.5781 15.7344C22.5781 17.1992 22.3021 18.3784 21.7991 19.3133L23.5603 20.2609C24.2552 18.9693 24.5781 17.4467 24.5781 15.7344H22.5781ZM21.8002 19.3112C21.2843 20.2644 20.5992 20.9697 19.7433 21.4573L20.7332 23.1951C21.9346 22.5108 22.8771 21.5234 23.5592 20.2631L21.8002 19.3112ZM19.7451 21.4562C18.8877 21.9423 17.9049 22.1953 16.7715 22.1953V24.1953C18.2162 24.1953 19.5446 23.8689 20.7314 23.1961L19.7451 21.4562ZM12.0703 15.7344C12.0703 17.3997 12.4319 18.8367 13.3044 19.8957L14.8479 18.6238C14.3793 18.0552 14.0703 17.1419 14.0703 15.7344H12.0703ZM13.3074 19.8993C14.1867 20.9562 15.3743 21.4805 16.7715 21.4805V19.4805C15.9291 19.4805 15.3198 19.1909 14.8449 18.6202L13.3074 19.8993ZM16.7715 21.4805C18.1644 21.4805 19.3467 20.9544 20.219 19.8957L18.6755 18.6238C18.2067 19.1928 17.6052 19.4805 16.7715 19.4805V21.4805ZM20.216 19.8993C21.0972 18.8402 21.4629 17.4016 21.4629 15.7344H19.4629C19.4629 17.14 19.1515 18.0518 18.6785 18.6202L20.216 19.8993ZM21.4629 15.7344C21.4629 14.0618 21.0978 12.6195 20.216 11.5596L18.6785 12.8388C19.1509 13.4066 19.4629 14.321 19.4629 15.7344H21.4629ZM20.2215 11.5663C19.3502 10.5004 18.1673 9.96875 16.7715 9.96875V11.9688C17.6022 11.9688 18.2032 12.2574 18.673 12.8321L20.2215 11.5663ZM16.7715 9.96875C15.3714 9.96875 14.1832 10.4986 13.3049 11.5627L14.8474 12.8358C15.3233 12.2592 15.932 11.9688 16.7715 11.9688V9.96875ZM13.3044 11.5633C12.4313 12.6229 12.0703 14.0637 12.0703 15.7344H14.0703C14.0703 14.3191 14.3799 13.4032 14.8479 12.8351L13.3044 11.5633ZM26.5117 14.543L25.5215 14.4033L25.3608 15.543H26.5117V14.543ZM27.3711 8.44922V7.44922H26.5022L26.3809 8.30957L27.3711 8.44922ZM30.3691 8.44922L31.3275 8.73488L31.7107 7.44922H30.3691V8.44922ZM28.5527 14.543V15.543H29.2981L29.5111 14.8286L28.5527 14.543ZM27.5019 14.6826L28.3613 8.58886L26.3809 8.30957L25.5215 14.4033L27.5019 14.6826ZM27.3711 9.44922H30.3691V7.44922H27.3711V9.44922ZM29.4108 8.16356L27.5944 14.2573L29.5111 14.8286L31.3275 8.73488L29.4108 8.16356ZM28.5527 13.543H26.5117V15.543H28.5527V13.543Z"
        fill="#62C99C" />
</svg>