<svg viewBox="0 0 32 32" fill="none" xmlns="http://www.w3.org/2000/svg">
    <g clip-path="url(#clip0_1_38)">
        <path
            d="M6.67383 3.76172V27.6875H3.8125V3.76172H6.67383ZM15.459 23.1953C14.1699 23.1953 13.0111 22.9023 11.9824 22.3164C10.9538 21.7305 10.14 20.8809 9.54102 19.7676C8.94206 18.6543 8.64258 17.3099 8.64258 15.7344C8.64258 14.1458 8.94206 12.7949 9.54102 11.6816C10.14 10.5684 10.9538 9.71875 11.9824 9.13281C13.0111 8.54688 14.1699 8.25391 15.459 8.25391C16.748 8.25391 17.9036 8.54688 18.9258 9.13281C19.9544 9.71875 20.7682 10.5684 21.3672 11.6816C21.9661 12.7949 22.2656 14.1458 22.2656 15.7344C22.2656 17.3229 21.9661 18.6738 21.3672 19.7871C20.7682 20.8939 19.9544 21.7402 18.9258 22.3262C17.9036 22.9056 16.748 23.1953 15.459 23.1953ZM11.7578 15.7344C11.7578 17.2708 12.0931 18.446 12.7637 19.2598C13.4408 20.0736 14.3392 20.4805 15.459 20.4805C16.5723 20.4805 17.4642 20.0736 18.1348 19.2598C18.8118 18.446 19.1504 17.2708 19.1504 15.7344C19.1504 14.1914 18.8118 13.013 18.1348 12.1992C17.4642 11.3789 16.5723 10.9688 15.459 10.9688C14.3392 10.9688 13.4408 11.3789 12.7637 12.1992C12.0931 13.013 11.7578 14.1914 11.7578 15.7344ZM24.7305 26.877L25.5898 20.7832H28.5879L26.7715 26.877H24.7305ZM27.123 16.0078C26.6413 16.0078 26.2344 15.8451 25.9023 15.5195C25.5703 15.1875 25.4043 14.7839 25.4043 14.3086C25.4043 13.8268 25.5703 13.4232 25.9023 13.0977C26.2344 12.7721 26.6413 12.6094 27.123 12.6094C27.6048 12.6094 28.0117 12.7721 28.3438 13.0977C28.6758 13.4232 28.8418 13.8268 28.8418 14.3086C28.8418 14.7839 28.6758 15.1875 28.3438 15.5195C28.0117 15.8451 27.6048 16.0078 27.123 16.0078Z"
            fill="#D53C58" />
    </g>
    <defs>
        <clipPath id="clip0_1_38">
            <rect width="32" height="32" fill="white" />
        </clipPath>
    </defs>
</svg>