<svg viewBox="0 0 32 32" fill="none" xmlns="http://www.w3.org/2000/svg">
    <path
        d="M5.56641 3.76172V27.6875H2.70508V3.76172H5.56641ZM16 23.1953C14.7109 23.1953 13.5521 22.9023 12.5234 22.3164C11.4948 21.7305 10.681 20.8809 10.082 19.7676C9.48307 18.6543 9.18359 17.3099 9.18359 15.7344C9.18359 14.1458 9.48307 12.7949 10.082 11.6816C10.681 10.5684 11.4948 9.71875 12.5234 9.13281C13.5521 8.54688 14.7109 8.25391 16 8.25391C17.2891 8.25391 18.4447 8.54688 19.4668 9.13281C20.4954 9.71875 21.3092 10.5684 21.9082 11.6816C22.5072 12.7949 22.8066 14.1458 22.8066 15.7344C22.8066 17.3229 22.5072 18.6738 21.9082 19.7871C21.3092 20.8939 20.4954 21.7402 19.4668 22.3262C18.4447 22.9056 17.2891 23.1953 16 23.1953ZM12.2988 15.7344C12.2988 17.2708 12.6341 18.446 13.3047 19.2598C13.9818 20.0736 14.8802 20.4805 16 20.4805C17.1133 20.4805 18.0052 20.0736 18.6758 19.2598C19.3529 18.446 19.6914 17.2708 19.6914 15.7344C19.6914 14.1914 19.3529 13.013 18.6758 12.1992C18.0052 11.3789 17.1133 10.9688 16 10.9688C14.8802 10.9688 13.9818 11.3789 13.3047 12.1992C12.6341 13.013 12.2988 14.1914 12.2988 15.7344ZM29.2852 3.76172V27.6875H26.4238V3.76172H29.2852Z"
        fill="#CD52C5" />
</svg>