<svg width="32" height="32" viewBox="0 0 32 32" fill="none" xmlns="http://www.w3.org/2000/svg">
    <path
        d="M8.40234 25.1875L3.71484 7.76562H6.32227L11.0098 25.1875H8.40234ZM16.0762 23.1953C14.7871 23.1953 13.6283 22.9023 12.5996 22.3164C11.571 21.7305 10.7572 20.8809 10.1582 19.7676C9.55924 18.6543 9.25977 17.3099 9.25977 15.7344C9.25977 14.1458 9.55924 12.7949 10.1582 11.6816C10.7572 10.5684 11.571 9.71875 12.5996 9.13281C13.6283 8.54688 14.7871 8.25391 16.0762 8.25391C17.3652 8.25391 18.5208 8.54688 19.543 9.13281C20.5716 9.71875 21.3854 10.5684 21.9844 11.6816C22.5833 12.7949 22.8828 14.1458 22.8828 15.7344C22.8828 17.3229 22.5833 18.6738 21.9844 19.7871C21.3854 20.8939 20.5716 21.7402 19.543 22.3262C18.5208 22.9056 17.3652 23.1953 16.0762 23.1953ZM12.375 15.7344C12.375 17.2708 12.7103 18.446 13.3809 19.2598C14.0579 20.0736 14.9564 20.4805 16.0762 20.4805C17.1895 20.4805 18.0814 20.0736 18.752 19.2598C19.429 18.446 19.7676 17.2708 19.7676 15.7344C19.7676 14.1914 19.429 13.013 18.752 12.1992C18.0814 11.3789 17.1895 10.9688 16.0762 10.9688C14.9564 10.9688 14.0579 11.3789 13.3809 12.1992C12.7103 13.013 12.375 14.1914 12.375 15.7344ZM30.623 18C29.8158 18 29.2493 18.166 28.9238 18.498C28.6048 18.8236 28.4453 19.3509 28.4453 20.0801V21.7402C28.4453 22.6191 28.3249 23.3223 28.084 23.8496C27.8431 24.377 27.5013 24.7741 27.0586 25.041C26.6224 25.3145 26.1016 25.4967 25.4961 25.5879C24.8971 25.679 24.2396 25.7246 23.5234 25.7246V23.459C24.3698 23.459 24.9329 23.2962 25.2129 22.9707C25.4993 22.6387 25.6426 22.1276 25.6426 21.4375V19.3672C25.6426 19.0156 25.7012 18.6706 25.8184 18.332C25.9421 17.9935 26.1699 17.6875 26.502 17.4141C26.834 17.1406 27.319 16.9225 27.957 16.7598V16.5254C27.319 16.3626 26.834 16.1478 26.502 15.8809C26.1699 15.6074 25.9421 15.3014 25.8184 14.9629C25.7012 14.6243 25.6426 14.2793 25.6426 13.9277V11.8477C25.6426 11.1576 25.4993 10.6497 25.2129 10.3242C24.9329 9.99219 24.3698 9.82943 23.5234 9.83594V7.56055C24.2396 7.56055 24.8971 7.60612 25.4961 7.69727C26.1016 7.78841 26.6224 7.9707 27.0586 8.24414C27.5013 8.51107 27.8431 8.91146 28.084 9.44531C28.3249 9.97266 28.4453 10.6725 28.4453 11.5449V13.2051C28.4453 13.9342 28.6048 14.4648 28.9238 14.7969C29.2493 15.1224 29.8158 15.2852 30.623 15.2852V18Z"
        fill="#E3B127" />
    <path
        d="M8.40234 25.1875L7.43669 25.4473L7.63584 26.1875H8.40234V25.1875ZM3.71484 7.76562V6.76562H2.41022L2.74919 8.02544L3.71484 7.76562ZM6.32227 7.76562L7.28792 7.50581L7.08877 6.76562H6.32227V7.76562ZM11.0098 25.1875V26.1875H12.3144L11.9754 24.9277L11.0098 25.1875ZM9.368 24.9277L4.6805 7.50581L2.74919 8.02544L7.43669 25.4473L9.368 24.9277ZM3.71484 8.76562H6.32227V6.76562H3.71484V8.76562ZM5.35661 8.02544L10.0441 25.4473L11.9754 24.9277L7.28792 7.50581L5.35661 8.02544ZM11.0098 24.1875H8.40234V26.1875H11.0098V24.1875ZM12.5996 22.3164L12.1047 23.1853L12.5996 22.3164ZM12.5996 9.13281L12.1047 8.26389L12.5996 9.13281ZM19.543 9.13281L19.0456 10.0004L19.048 10.0017L19.543 9.13281ZM21.9844 19.7871L22.8639 20.2631L22.865 20.2609L21.9844 19.7871ZM19.543 22.3262L20.0361 23.1961L20.0379 23.1951L19.543 22.3262ZM13.3809 19.2598L12.6091 19.8957L12.6121 19.8993L13.3809 19.2598ZM18.752 19.2598L17.9832 18.6202L17.9802 18.6238L18.752 19.2598ZM18.752 12.1992L17.9777 12.8321L17.9832 12.8388L18.752 12.1992ZM13.3809 12.1992L12.6096 11.5627L12.6091 11.5633L13.3809 12.1992ZM16.0762 22.1953C14.9448 22.1953 13.9592 21.94 13.0946 21.4475L12.1047 23.1853C13.2973 23.8647 14.6294 24.1953 16.0762 24.1953V22.1953ZM13.0946 21.4475C12.2402 20.9608 11.5552 20.2535 11.0388 19.2938L9.27757 20.2414C9.95916 21.5082 10.9017 22.5001 12.1047 23.1853L13.0946 21.4475ZM11.0388 19.2938C10.5352 18.3577 10.2598 17.1846 10.2598 15.7344H8.25977C8.25977 17.4352 8.58326 18.9509 9.27757 20.2414L11.0388 19.2938ZM10.2598 15.7344C10.2598 14.2696 10.5358 13.0904 11.0388 12.1554L9.27757 11.2078C8.58266 12.4995 8.25977 14.0221 8.25977 15.7344H10.2598ZM11.0388 12.1554C11.5552 11.1957 12.2402 10.4884 13.0946 10.0017L12.1047 8.26389C10.9017 8.9491 9.95916 9.94098 9.27757 11.2078L11.0388 12.1554ZM13.0946 10.0017C13.9592 9.50923 14.9448 9.25391 16.0762 9.25391V7.25391C14.6294 7.25391 13.2973 7.58452 12.1047 8.26389L13.0946 10.0017ZM16.0762 9.25391C17.2076 9.25391 18.1889 9.50925 19.0456 10.0004L20.0403 8.26525C18.8528 7.5845 17.5228 7.25391 16.0762 7.25391V9.25391ZM19.048 10.0017C19.9024 10.4884 20.5874 11.1957 21.1037 12.1554L22.865 11.2078C22.1834 9.94098 21.2408 8.9491 20.0379 8.26389L19.048 10.0017ZM21.1037 12.1554C21.6068 13.0904 21.8828 14.2696 21.8828 15.7344H23.8828C23.8828 14.0221 23.5599 12.4995 22.865 11.2078L21.1037 12.1554ZM21.8828 15.7344C21.8828 17.1992 21.6068 18.3784 21.1037 19.3133L22.865 20.2609C23.5599 18.9693 23.8828 17.4467 23.8828 15.7344H21.8828ZM21.1049 19.3112C20.589 20.2644 19.9039 20.9697 19.048 21.4573L20.0379 23.1951C21.2393 22.5108 22.1818 21.5234 22.8638 20.2631L21.1049 19.3112ZM19.0498 21.4562C18.1924 21.9423 17.2096 22.1953 16.0762 22.1953V24.1953C17.5209 24.1953 18.8493 23.8689 20.0361 23.1961L19.0498 21.4562ZM11.375 15.7344C11.375 17.3997 11.7365 18.8367 12.6091 19.8957L14.1526 18.6238C13.684 18.0552 13.375 17.1419 13.375 15.7344H11.375ZM12.6121 19.8993C13.4914 20.9562 14.679 21.4805 16.0762 21.4805V19.4805C15.2338 19.4805 14.6245 19.1909 14.1496 18.6202L12.6121 19.8993ZM16.0762 21.4805C17.4691 21.4805 18.6513 20.9544 19.5237 19.8957L17.9802 18.6238C17.5114 19.1928 16.9099 19.4805 16.0762 19.4805V21.4805ZM19.5207 19.8993C20.4019 18.8402 20.7676 17.4016 20.7676 15.7344H18.7676C18.7676 17.14 18.4562 18.0518 17.9832 18.6202L19.5207 19.8993ZM20.7676 15.7344C20.7676 14.0618 20.4025 12.6195 19.5207 11.5596L17.9832 12.8388C18.4556 13.4066 18.7676 14.321 18.7676 15.7344H20.7676ZM19.5262 11.5663C18.6549 10.5004 17.472 9.96875 16.0762 9.96875V11.9688C16.9069 11.9688 17.5079 12.2574 17.9777 12.8321L19.5262 11.5663ZM16.0762 9.96875C14.676 9.96875 13.4879 10.4986 12.6096 11.5627L14.1521 12.8358C14.628 12.2592 15.2367 11.9688 16.0762 11.9688V9.96875ZM12.6091 11.5633C11.736 12.6229 11.375 14.0637 11.375 15.7344H13.375C13.375 14.3191 13.6846 13.4032 14.1526 12.8351L12.6091 11.5633ZM30.623 18V19H31.623V18H30.623ZM28.9238 18.498L28.2098 17.798L28.2096 17.7981L28.9238 18.498ZM27.0586 25.041L26.5422 24.1846L26.5348 24.1891L26.5275 24.1937L27.0586 25.041ZM25.4961 25.5879L25.3472 24.599L25.3457 24.5993L25.4961 25.5879ZM23.5234 25.7246H22.5234V26.7246H23.5234V25.7246ZM23.5234 23.459V22.459H22.5234V23.459H23.5234ZM25.2129 22.9707L24.4557 22.3175L24.4547 22.3187L25.2129 22.9707ZM25.8184 18.332L24.8791 17.9888L24.8762 17.9969L24.8734 18.0049L25.8184 18.332ZM27.957 16.7598L28.2042 17.7287L28.957 17.5367V16.7598H27.957ZM27.957 16.5254H28.957V15.7485L28.2042 15.5564L27.957 16.5254ZM26.502 15.8809L25.8662 16.6528L25.8754 16.6602L26.502 15.8809ZM25.8184 14.9629L24.8734 15.29L24.8762 15.2981L24.8791 15.3061L25.8184 14.9629ZM25.2129 10.3242L24.4484 10.9688L24.4552 10.9769L24.4622 10.9848L25.2129 10.3242ZM23.5234 9.83594H22.5234V10.8437L23.5311 10.8359L23.5234 9.83594ZM23.5234 7.56055V6.56055H22.5234V7.56055H23.5234ZM25.4961 7.69727L25.3457 8.68589L25.3472 8.68612L25.4961 7.69727ZM27.0586 8.24414L26.5275 9.09143L26.5348 9.09604L26.5422 9.10052L27.0586 8.24414ZM28.084 9.44531L27.1725 9.85661L27.1744 9.86081L28.084 9.44531ZM28.9238 14.7969L28.2027 15.4897L28.2097 15.4969L28.2167 15.504L28.9238 14.7969ZM30.623 15.2852H31.623V14.2852H30.623V15.2852ZM30.623 17C29.7313 17 28.8218 17.1737 28.2098 17.798L29.6379 19.1981C29.6769 19.1583 29.9002 19 30.623 19V17ZM28.2096 17.7981C27.6238 18.3959 27.4453 19.2398 27.4453 20.0801H29.4453C29.4453 19.462 29.5859 19.2512 29.638 19.198L28.2096 17.7981ZM27.4453 20.0801V21.7402H29.4453V20.0801H27.4453ZM27.4453 21.7402C27.4453 22.5428 27.333 23.0868 27.1744 23.4341L28.9936 24.2651C29.3167 23.5577 29.4453 22.6955 29.4453 21.7402H27.4453ZM27.1744 23.4341C27.0066 23.8014 26.7919 24.0341 26.5422 24.1846L27.5749 25.8974C28.2107 25.5141 28.6796 24.9525 28.9936 24.2651L27.1744 23.4341ZM26.5275 24.1937C26.2275 24.3818 25.8422 24.5245 25.3472 24.599L25.645 26.5767C26.3609 26.469 27.0173 26.2471 27.5897 25.8883L26.5275 24.1937ZM25.3457 24.5993C24.8045 24.6816 24.198 24.7246 23.5234 24.7246V26.7246C24.2812 26.7246 24.9898 26.6764 25.6465 26.5765L25.3457 24.5993ZM24.5234 25.7246V23.459H22.5234V25.7246H24.5234ZM23.5234 24.459C24.4081 24.459 25.3823 24.3074 25.9711 23.6227L24.4547 22.3187C24.48 22.2893 24.4639 22.3297 24.3029 22.3762C24.1418 22.4228 23.8904 22.459 23.5234 22.459V24.459ZM25.97 23.6239C26.4814 23.0313 26.6426 22.2369 26.6426 21.4375H24.6426C24.6426 22.0183 24.5173 22.2461 24.4557 22.3175L25.97 23.6239ZM26.6426 21.4375V19.3672H24.6426V21.4375H26.6426ZM26.6426 19.3672C26.6426 19.1291 26.6819 18.8945 26.7633 18.6591L24.8734 18.0049C24.7205 18.4466 24.6426 18.9022 24.6426 19.3672H26.6426ZM26.7576 18.6752C26.8093 18.5339 26.9165 18.3681 27.1377 18.186L25.8662 16.6421C25.4233 17.0069 25.0748 17.4531 24.8791 17.9888L26.7576 18.6752ZM27.1377 18.186C27.3121 18.0423 27.6402 17.8726 28.2042 17.7287L27.7098 15.7908C26.9978 15.9724 26.3559 16.2389 25.8662 16.6421L27.1377 18.186ZM28.957 16.7598V16.5254H26.957V16.7598H28.957ZM28.2042 15.5564C27.6368 15.4117 27.305 15.2434 27.1285 15.1015L25.8754 16.6602C26.363 17.0522 27.0013 17.3136 27.7098 17.4944L28.2042 15.5564ZM27.1377 15.1089C26.9165 14.9268 26.8093 14.7611 26.7576 14.6197L24.8791 15.3061C25.0748 15.8418 25.4233 16.2881 25.8662 16.6528L27.1377 15.1089ZM26.7633 14.6358C26.6819 14.4004 26.6426 14.1658 26.6426 13.9277H24.6426C24.6426 14.3928 24.7205 14.8483 24.8734 15.29L26.7633 14.6358ZM26.6426 13.9277V11.8477H24.6426V13.9277H26.6426ZM26.6426 11.8477C26.6426 11.0506 26.4823 10.253 25.9636 9.66359L24.4622 10.9848C24.5164 11.0464 24.6426 11.2645 24.6426 11.8477H26.6426ZM25.9774 9.67962C25.3866 8.97886 24.4043 8.82913 23.5157 8.83597L23.5311 10.8359C23.8966 10.8331 24.1452 10.8682 24.3029 10.9138C24.4594 10.959 24.4734 10.9984 24.4484 10.9688L25.9774 9.67962ZM24.5234 9.83594V7.56055H22.5234V9.83594H24.5234ZM23.5234 8.56055C24.198 8.56055 24.8045 8.60353 25.3457 8.68588L25.6465 6.70865C24.9898 6.60871 24.2812 6.56055 23.5234 6.56055V8.56055ZM25.3472 8.68612C25.8422 8.76064 26.2275 8.90339 26.5275 9.09143L27.5897 7.39685C27.0173 7.03802 26.3609 6.81619 25.645 6.70841L25.3472 8.68612ZM26.5422 9.10052C26.7886 9.24906 27.0036 9.48228 27.1725 9.8566L28.9955 9.03402C28.6826 8.34064 28.214 7.77308 27.5749 7.38776L26.5422 9.10052ZM27.1744 9.86081C27.3334 10.2088 27.4453 10.7501 27.4453 11.5449H29.4453C29.4453 10.5949 29.3164 9.73647 28.9936 9.02982L27.1744 9.86081ZM27.4453 11.5449V13.2051H29.4453V11.5449H27.4453ZM27.4453 13.2051C27.4453 14.0477 27.6247 14.8881 28.2027 15.4897L29.6449 14.104C29.5849 14.0416 29.4453 13.8208 29.4453 13.2051H27.4453ZM28.2167 15.504C28.829 16.1163 29.7353 16.2852 30.623 16.2852V14.2852C29.8962 14.2852 29.6696 14.1285 29.6309 14.0898L28.2167 15.504ZM29.623 15.2852V18H31.623V15.2852H29.623Z"
        fill="#E3B127" />
</svg>