<svg width="32" height="32" viewBox="0 0 32 32" fill="none" xmlns="http://www.w3.org/2000/svg">
    <path
        d="M11.0977 25.1875L6.41016 7.76562H9.01758L13.7051 25.1875H11.0977ZM18.7715 23.1953C17.4824 23.1953 16.3236 22.9023 15.2949 22.3164C14.2663 21.7305 13.4525 20.8809 12.8535 19.7676C12.2546 18.6543 11.9551 17.3099 11.9551 15.7344C11.9551 14.1458 12.2546 12.7949 12.8535 11.6816C13.4525 10.5684 14.2663 9.71875 15.2949 9.13281C16.3236 8.54688 17.4824 8.25391 18.7715 8.25391C20.0605 8.25391 21.2161 8.54688 22.2383 9.13281C23.2669 9.71875 24.0807 10.5684 24.6797 11.6816C25.2786 12.7949 25.5781 14.1458 25.5781 15.7344C25.5781 17.3229 25.2786 18.6738 24.6797 19.7871C24.0807 20.8939 23.2669 21.7402 22.2383 22.3262C21.2161 22.9056 20.0605 23.1953 18.7715 23.1953ZM15.0703 15.7344C15.0703 17.2708 15.4056 18.446 16.0762 19.2598C16.7533 20.0736 17.6517 20.4805 18.7715 20.4805C19.8848 20.4805 20.7767 20.0736 21.4473 19.2598C22.1243 18.446 22.4629 17.2708 22.4629 15.7344C22.4629 14.1914 22.1243 13.013 21.4473 12.1992C20.7767 11.3789 19.8848 10.9688 18.7715 10.9688C17.6517 10.9688 16.7533 11.3789 16.0762 12.1992C15.4056 13.013 15.0703 14.1914 15.0703 15.7344ZM28.6211 23.1855C28.1393 23.1855 27.7324 23.0228 27.4004 22.6973C27.0684 22.3652 26.9023 21.9616 26.9023 21.4863C26.9023 21.0046 27.0684 20.6009 27.4004 20.2754C27.7324 19.9499 28.1393 19.7871 28.6211 19.7871C29.1029 19.7871 29.5098 19.9499 29.8418 20.2754C30.1738 20.6009 30.3398 21.0046 30.3398 21.4863C30.3398 21.9616 30.1738 22.3652 29.8418 22.6973C29.5098 23.0228 29.1029 23.1855 28.6211 23.1855Z"
        fill="#CD52C5" />
    <path
        d="M11.0977 25.1875L10.132 25.4473L10.3312 26.1875H11.0977V25.1875ZM6.41016 7.76562V6.76562H5.10553L5.4445 8.02544L6.41016 7.76562ZM9.01758 7.76562L9.98324 7.50581L9.78408 6.76562H9.01758V7.76562ZM13.7051 25.1875V26.1875H15.0097L14.6707 24.9277L13.7051 25.1875ZM12.0633 24.9277L7.37581 7.50581L5.4445 8.02544L10.132 25.4473L12.0633 24.9277ZM6.41016 8.76562H9.01758V6.76562H6.41016V8.76562ZM8.05192 8.02544L12.7394 25.4473L14.6707 24.9277L9.98324 7.50581L8.05192 8.02544ZM13.7051 24.1875H11.0977V26.1875H13.7051V24.1875ZM15.2949 22.3164L14.8 23.1853L15.2949 22.3164ZM15.2949 9.13281L14.8 8.26389L15.2949 9.13281ZM22.2383 9.13281L21.741 10.0004L21.7433 10.0017L22.2383 9.13281ZM24.6797 19.7871L25.5592 20.2631L25.5603 20.2609L24.6797 19.7871ZM22.2383 22.3262L22.7314 23.1961L22.7332 23.1951L22.2383 22.3262ZM16.0762 19.2598L15.3044 19.8957L15.3074 19.8993L16.0762 19.2598ZM21.4473 19.2598L20.6785 18.6202L20.6755 18.6238L21.4473 19.2598ZM21.4473 12.1992L20.673 12.8321L20.6785 12.8388L21.4473 12.1992ZM16.0762 12.1992L15.3049 11.5627L15.3044 11.5633L16.0762 12.1992ZM18.7715 22.1953C17.6401 22.1953 16.6545 21.94 15.7899 21.4475L14.8 23.1853C15.9926 23.8647 17.3247 24.1953 18.7715 24.1953V22.1953ZM15.7899 21.4475C14.9355 20.9608 14.2505 20.2535 13.7342 19.2938L11.9729 20.2414C12.6545 21.5082 13.597 22.5001 14.8 23.1853L15.7899 21.4475ZM13.7342 19.2938C13.2305 18.3577 12.9551 17.1846 12.9551 15.7344H10.9551C10.9551 17.4352 11.2786 18.9509 11.9729 20.2414L13.7342 19.2938ZM12.9551 15.7344C12.9551 14.2696 13.2311 13.0904 13.7342 12.1554L11.9729 11.2078C11.278 12.4995 10.9551 14.0221 10.9551 15.7344H12.9551ZM13.7342 12.1554C14.2505 11.1957 14.9355 10.4884 15.7899 10.0017L14.8 8.26389C13.597 8.9491 12.6545 9.94098 11.9729 11.2078L13.7342 12.1554ZM15.7899 10.0017C16.6545 9.50923 17.6401 9.25391 18.7715 9.25391V7.25391C17.3247 7.25391 15.9926 7.58452 14.8 8.26389L15.7899 10.0017ZM18.7715 9.25391C19.9029 9.25391 20.8842 9.50925 21.741 10.0004L22.7356 8.26525C21.5481 7.5845 20.2182 7.25391 18.7715 7.25391V9.25391ZM21.7433 10.0017C22.5977 10.4884 23.2827 11.1957 23.7991 12.1554L25.5603 11.2078C24.8787 9.94098 23.9362 8.9491 22.7332 8.26389L21.7433 10.0017ZM23.7991 12.1554C24.3021 13.0904 24.5781 14.2696 24.5781 15.7344H26.5781C26.5781 14.0221 26.2552 12.4995 25.5603 11.2078L23.7991 12.1554ZM24.5781 15.7344C24.5781 17.1992 24.3021 18.3784 23.7991 19.3133L25.5603 20.2609C26.2552 18.9693 26.5781 17.4467 26.5781 15.7344H24.5781ZM23.8002 19.3112C23.2843 20.2644 22.5992 20.9697 21.7433 21.4573L22.7332 23.1951C23.9346 22.5108 24.8771 21.5234 25.5592 20.2631L23.8002 19.3112ZM21.7451 21.4562C20.8877 21.9423 19.9049 22.1953 18.7715 22.1953V24.1953C20.2162 24.1953 21.5446 23.8689 22.7314 23.1961L21.7451 21.4562ZM14.0703 15.7344C14.0703 17.3997 14.4319 18.8367 15.3044 19.8957L16.8479 18.6238C16.3793 18.0552 16.0703 17.1419 16.0703 15.7344H14.0703ZM15.3074 19.8993C16.1867 20.9562 17.3743 21.4805 18.7715 21.4805V19.4805C17.9291 19.4805 17.3198 19.1909 16.8449 18.6202L15.3074 19.8993ZM18.7715 21.4805C20.1644 21.4805 21.3467 20.9544 22.219 19.8957L20.6755 18.6238C20.2067 19.1928 19.6052 19.4805 18.7715 19.4805V21.4805ZM22.216 19.8993C23.0972 18.8402 23.4629 17.4016 23.4629 15.7344H21.4629C21.4629 17.14 21.1515 18.0518 20.6785 18.6202L22.216 19.8993ZM23.4629 15.7344C23.4629 14.0618 23.0978 12.6195 22.216 11.5596L20.6785 12.8388C21.1509 13.4066 21.4629 14.321 21.4629 15.7344H23.4629ZM22.2215 11.5663C21.3502 10.5004 20.1673 9.96875 18.7715 9.96875V11.9688C19.6022 11.9688 20.2032 12.2574 20.673 12.8321L22.2215 11.5663ZM18.7715 9.96875C17.3714 9.96875 16.1832 10.4986 15.3049 11.5627L16.8474 12.8358C17.3233 12.2592 17.932 11.9688 18.7715 11.9688V9.96875ZM15.3044 11.5633C14.4313 12.6229 14.0703 14.0637 14.0703 15.7344H16.0703C16.0703 14.3191 16.3799 13.4032 16.8479 12.8351L15.3044 11.5633ZM27.4004 22.6973L26.6932 23.4044L26.7003 23.4113L27.4004 22.6973ZM27.4004 20.2754L26.7003 19.5613L27.4004 20.2754ZM29.8418 20.2754L30.5419 19.5613L29.8418 20.2754ZM29.8418 22.6973L30.5419 23.4114L30.5489 23.4044L29.8418 22.6973ZM28.6211 22.1855C28.3906 22.1855 28.2382 22.1182 28.1005 21.9832L26.7003 23.4113C27.2267 23.9274 27.8881 24.1855 28.6211 24.1855V22.1855ZM28.1075 21.9902C27.9655 21.8482 27.9023 21.7 27.9023 21.4863H25.9023C25.9023 22.2232 26.1712 22.8823 26.6933 23.4044L28.1075 21.9902ZM27.9023 21.4863C27.9023 21.2623 27.9679 21.1194 28.1005 20.9895L26.7003 19.5613C26.1688 20.0824 25.9023 20.7468 25.9023 21.4863H27.9023ZM28.1005 20.9895C28.2382 20.8545 28.3906 20.7871 28.6211 20.7871V18.7871C27.8881 18.7871 27.2267 19.0453 26.7003 19.5613L28.1005 20.9895ZM28.6211 20.7871C28.8516 20.7871 29.004 20.8545 29.1417 20.9895L30.5419 19.5613C30.0155 19.0453 29.3541 18.7871 28.6211 18.7871V20.7871ZM29.1417 20.9895C29.2743 21.1194 29.3398 21.2623 29.3398 21.4863H31.3398C31.3398 20.7468 31.0734 20.0824 30.5419 19.5613L29.1417 20.9895ZM29.3398 21.4863C29.3398 21.7 29.2766 21.8482 29.1347 21.9902L30.5489 23.4044C31.071 22.8823 31.3398 22.2232 31.3398 21.4863H29.3398ZM29.1417 21.9832C29.004 22.1182 28.8516 22.1855 28.6211 22.1855V24.1855C29.3541 24.1855 30.0155 23.9274 30.5419 23.4113L29.1417 21.9832Z"
        fill="#CD52C5" />
</svg>